<svg width="309" height="77" viewBox="0 0 309 77" fill="none" xmlns="http://www.w3.org/2000/svg">
<path d="M3.5589 73.23C2.7539 73.23 2.07086 73.01 1.51086 72.58C0.950864 72.14 0.566887 71.5499 0.358887 70.8199L1.7749 70.48C1.8609 70.87 2.06587 71.2 2.39087 71.47C2.72187 71.74 3.10086 71.88 3.52686 71.88C3.80486 71.88 4.08688 71.8101 4.37488 71.6801C4.66288 71.5401 4.88488 71.32 5.03888 71.01C5.14588 70.79 5.2069 70.56 5.2229 70.3C5.2389 70.04 5.24689 69.74 5.24689 69.38V61.48H6.68689V69.38C6.68689 69.71 6.68489 70.01 6.67889 70.27C6.67889 70.53 6.65288 70.78 6.59888 71.02C6.55088 71.26 6.45485 71.5 6.31085 71.74C6.02285 72.25 5.63688 72.63 5.15088 72.87C4.67088 73.11 4.1409 73.23 3.5589 73.23ZM11.5449 73.24C10.8989 73.24 10.3579 73.12 9.9209 72.89C9.4889 72.65 9.16089 72.3299 8.93689 71.9399C8.71789 71.5499 8.60889 71.13 8.60889 70.66C8.60889 70.21 8.69387 69.82 8.86487 69.49C9.04087 69.15 9.28589 68.87 9.60089 68.66C9.91489 68.43 10.2909 68.26 10.7289 68.13C11.1389 68.02 11.5979 67.92 12.1049 67.84C12.6169 67.75 13.1339 67.68 13.6569 67.61C14.1789 67.54 14.6668 67.47 15.1208 67.41L14.6089 67.7C14.6249 66.94 14.4699 66.37 14.1449 66C13.8249 65.63 13.2699 65.45 12.4809 65.45C11.9579 65.45 11.4989 65.5701 11.1049 65.8101C10.7149 66.0401 10.4409 66.43 10.2809 66.96L8.92889 66.55C9.13689 65.79 9.5389 65.2 10.1369 64.77C10.7339 64.34 11.5209 64.12 12.4969 64.12C13.2809 64.12 13.9529 64.26 14.5129 64.54C15.0779 64.82 15.4829 65.2401 15.7289 65.8101C15.8509 66.0701 15.9289 66.3701 15.9609 66.6801C15.9929 66.9901 16.0089 67.31 16.0089 67.66V73H14.7449V70.9301L15.0409 71.12C14.7149 71.82 14.2589 72.35 13.6729 72.7C13.0909 73.06 12.3819 73.24 11.5449 73.24ZM11.7609 72.05C12.2729 72.05 12.7149 71.96 13.0889 71.78C13.4669 71.59 13.7709 71.35 14.0009 71.05C14.2299 70.74 14.3789 70.4101 14.4489 70.0601C14.5289 69.7901 14.5709 69.49 14.5769 69.17C14.5869 68.84 14.5929 68.58 14.5929 68.41L15.0889 68.62C14.6249 68.69 14.1689 68.7501 13.7209 68.8101C13.2729 68.8701 12.8489 68.93 12.4489 69C12.0489 69.06 11.6889 69.14 11.3689 69.23C11.1339 69.31 10.9129 69.4 10.7049 69.52C10.5019 69.64 10.3369 69.79 10.2089 69.98C10.0859 70.16 10.0249 70.38 10.0249 70.66C10.0249 70.89 10.0829 71.11 10.2009 71.33C10.3229 71.54 10.5099 71.71 10.7609 71.85C11.0169 71.98 11.3499 72.05 11.7609 72.05ZM24.2409 73V68.67C24.2409 68.26 24.2029 67.87 24.1289 67.49C24.0589 67.11 23.9339 66.77 23.7529 66.47C23.5769 66.17 23.3369 65.93 23.0329 65.75C22.7339 65.58 22.3549 65.49 21.8969 65.49C21.5389 65.49 21.2139 65.55 20.9209 65.67C20.6329 65.79 20.3849 65.97 20.1769 66.22C19.9689 66.46 19.8059 66.77 19.6889 67.14C19.5769 67.51 19.5209 67.95 19.5209 68.45L18.5849 68.16C18.5849 67.32 18.7339 66.61 19.0329 66.01C19.3369 65.41 19.7609 64.94 20.3049 64.62C20.8539 64.3 21.4989 64.14 22.2409 64.14C22.8009 64.14 23.2779 64.22 23.6729 64.4C24.0669 64.58 24.3949 64.81 24.6569 65.1C24.9179 65.39 25.1229 65.72 25.2729 66.08C25.4219 66.44 25.5259 66.8001 25.5849 67.1801C25.6489 67.5401 25.6809 67.89 25.6809 68.22V73H24.2409ZM18.0809 73V64.36H19.3609V66.67H19.5209V73H18.0809Z" fill="#8A8B98"/>
<path d="M57.1401 73V61.48H63.8601V62.9H58.5601V66.53H62.9001V67.95H58.5601V73H57.1401ZM68.8001 73.24C67.9501 73.24 67.2101 73.0501 66.5801 72.6801C65.9501 72.3001 65.4601 71.78 65.1101 71.1C64.7501 70.43 64.5801 69.64 64.5801 68.74C64.5801 67.79 64.7501 66.98 65.1001 66.29C65.4401 65.59 65.9301 65.0599 66.5501 64.6899C67.1701 64.3099 67.9001 64.12 68.7401 64.12C69.6101 64.12 70.3501 64.32 70.9501 64.72C71.5701 65.12 72.0301 65.6901 72.3301 66.4301C72.6401 67.1701 72.7701 68.06 72.7301 69.08H71.2901V68.5699C71.2701 67.5099 71.0601 66.7099 70.6401 66.1899C70.2301 65.6599 69.6101 65.4 68.7901 65.4C67.9101 65.4 67.2402 65.68 66.7802 66.25C66.3202 66.81 66.0901 67.6201 66.0901 68.6801C66.0901 69.7001 66.3202 70.49 66.7802 71.05C67.2402 71.61 67.8901 71.89 68.7401 71.89C69.3101 71.89 69.8001 71.76 70.2301 71.5C70.6501 71.23 70.9801 70.86 71.2201 70.37L72.5901 70.84C72.2501 71.6 71.7401 72.19 71.0701 72.62C70.3901 73.03 69.6401 73.24 68.8001 73.24ZM65.6101 69.08V67.9399H71.9901V69.08H65.6101ZM78.4801 73.24C77.6701 73.24 76.9901 73.04 76.4301 72.64C75.8801 72.23 75.4501 71.69 75.1701 71C74.8801 70.31 74.7401 69.53 74.7401 68.67C74.7401 67.8 74.8801 67.02 75.1701 66.34C75.4501 65.65 75.8801 65.11 76.4301 64.71C76.9901 64.32 77.6801 64.12 78.4901 64.12C79.2901 64.12 79.9702 64.32 80.5502 64.72C81.1302 65.11 81.5801 65.66 81.8901 66.34C82.2001 67.03 82.3501 67.81 82.3501 68.67C82.3501 69.54 82.2001 70.31 81.8901 71C81.5801 71.69 81.1302 72.23 80.5502 72.64C79.9702 73.04 79.2801 73.24 78.4801 73.24ZM74.5001 73V61.48H75.9301V66.64H75.7701V73H74.5001ZM78.3002 71.9399C78.8702 71.9399 79.3501 71.79 79.7201 71.5C80.0901 71.22 80.3702 70.83 80.5602 70.34C80.7502 69.84 80.8401 69.29 80.8401 68.67C80.8401 68.06 80.7502 67.51 80.5602 67.02C80.3802 66.53 80.0901 66.14 79.7101 65.86C79.3301 65.57 78.8501 65.42 78.2601 65.42C77.7001 65.42 77.2401 65.56 76.8701 65.84C76.5001 66.11 76.2301 66.49 76.0501 66.98C75.8701 67.47 75.7701 68.03 75.7701 68.67C75.7701 69.3 75.8601 69.86 76.0401 70.36C76.2201 70.85 76.5001 71.24 76.8701 71.52C77.2401 71.8 77.7202 71.9399 78.3002 71.9399Z" fill="#8A8B98"/>
<path d="M127.37 73V61.48H128.67L133.02 70.66L137.35 61.48H138.66V72.99H137.31V64.61L133.39 73H132.63L128.72 64.61V73H127.37ZM143.36 73.24C142.71 73.24 142.17 73.12 141.73 72.89C141.3 72.65 140.97 72.3299 140.75 71.9399C140.53 71.5499 140.42 71.13 140.42 70.66C140.42 70.21 140.51 69.82 140.68 69.49C140.85 69.15 141.1 68.87 141.41 68.66C141.73 68.43 142.1 68.26 142.54 68.13C142.95 68.02 143.41 67.92 143.92 67.84C144.43 67.75 144.95 67.68 145.47 67.61C145.99 67.54 146.48 67.47 146.93 67.41L146.42 67.7C146.44 66.94 146.28 66.37 145.96 66C145.64 65.63 145.08 65.45 144.29 65.45C143.77 65.45 143.31 65.5701 142.92 65.8101C142.53 66.0401 142.25 66.43 142.09 66.96L140.74 66.55C140.95 65.79 141.35 65.2 141.95 64.77C142.55 64.34 143.33 64.12 144.31 64.12C145.09 64.12 145.77 64.26 146.33 64.54C146.89 64.82 147.3 65.2401 147.54 65.8101C147.66 66.0701 147.74 66.3701 147.77 66.6801C147.81 66.9901 147.82 67.31 147.82 67.66V73H146.56V70.9301L146.85 71.12C146.53 71.82 146.07 72.35 145.49 72.7C144.9 73.06 144.19 73.24 143.36 73.24ZM143.57 72.05C144.09 72.05 144.53 71.96 144.9 71.78C145.28 71.59 145.58 71.35 145.81 71.05C146.04 70.74 146.19 70.4101 146.26 70.0601C146.34 69.7901 146.38 69.49 146.39 69.17C146.4 68.84 146.41 68.58 146.41 68.41L146.9 68.62C146.44 68.69 145.98 68.7501 145.53 68.8101C145.09 68.8701 144.66 68.93 144.26 69C143.86 69.06 143.5 69.14 143.18 69.23C142.95 69.31 142.73 69.4 142.52 69.52C142.31 69.64 142.15 69.79 142.02 69.98C141.9 70.16 141.84 70.38 141.84 70.66C141.84 70.89 141.9 71.11 142.01 71.33C142.14 71.54 142.32 71.71 142.57 71.85C142.83 71.98 143.16 72.05 143.57 72.05ZM149.9 73V64.36H151.17V66.45L150.97 66.1801C151.07 65.9101 151.2 65.6599 151.36 65.4399C151.52 65.2199 151.71 65.03 151.91 64.89C152.13 64.71 152.39 64.57 152.67 64.47C152.95 64.38 153.24 64.32 153.53 64.3C153.83 64.28 154.1 64.3 154.36 64.36V65.7C154.06 65.62 153.73 65.59 153.37 65.63C153.02 65.67 152.69 65.8 152.38 66.02C152.1 66.22 151.89 66.46 151.73 66.74C151.58 67.03 151.48 67.33 151.42 67.66C151.36 67.99 151.33 68.32 151.33 68.66V73H149.9Z" fill="#8A8B98"/>
<path d="M206.37 73L210.23 61.48H212.21L216.07 73H214.59L210.98 62.3101H211.43L207.85 73H206.37ZM208.23 70.3V68.97H214.21V70.3H208.23ZM221.47 73.24C220.66 73.24 219.98 73.04 219.42 72.64C218.87 72.23 218.45 71.69 218.16 71C217.88 70.31 217.73 69.53 217.73 68.67C217.73 67.8 217.88 67.02 218.16 66.34C218.45 65.65 218.87 65.11 219.42 64.71C219.98 64.32 220.67 64.12 221.48 64.12C222.28 64.12 222.97 64.32 223.54 64.72C224.12 65.11 224.57 65.66 224.88 66.34C225.19 67.03 225.34 67.81 225.34 68.67C225.34 69.54 225.19 70.31 224.88 71C224.57 71.69 224.12 72.23 223.54 72.64C222.97 73.04 222.28 73.24 221.47 73.24ZM217.49 76.84V64.36H218.77V70.72H218.93V76.84H217.49ZM221.29 71.9399C221.87 71.9399 222.34 71.79 222.71 71.5C223.08 71.22 223.36 70.83 223.55 70.34C223.74 69.84 223.83 69.29 223.83 68.67C223.83 68.06 223.74 67.51 223.55 67.02C223.37 66.53 223.09 66.14 222.7 65.86C222.32 65.57 221.84 65.42 221.25 65.42C220.69 65.42 220.23 65.56 219.86 65.84C219.49 66.11 219.22 66.49 219.04 66.98C218.86 67.47 218.77 68.03 218.77 68.67C218.77 69.3 218.85 69.86 219.03 70.36C219.21 70.85 219.49 71.24 219.86 71.52C220.24 71.8 220.71 71.9399 221.29 71.9399ZM227.1 73V64.36H228.37V66.45L228.16 66.1801C228.26 65.9101 228.39 65.6599 228.55 65.4399C228.72 65.2199 228.9 65.03 229.1 64.89C229.33 64.71 229.58 64.57 229.86 64.47C230.15 64.38 230.44 64.32 230.73 64.3C231.02 64.28 231.3 64.3 231.55 64.36V65.7C231.25 65.62 230.93 65.59 230.57 65.63C230.21 65.67 229.88 65.8 229.58 66.02C229.3 66.22 229.08 66.46 228.93 66.74C228.78 67.03 228.68 67.33 228.62 67.66C228.56 67.99 228.53 68.32 228.53 68.66V73H227.1Z" fill="#8A8B98"/>
<path d="M277.17 73V61.48H278.61L284.62 70.48V61.48H286.06V73H284.62L278.61 63.99V73H277.17ZM291.98 73.24C291.12 73.24 290.38 73.05 289.76 72.66C289.14 72.27 288.66 71.73 288.32 71.04C287.99 70.35 287.82 69.56 287.82 68.67C287.82 67.77 287.99 66.97 288.33 66.29C288.67 65.61 289.16 65.07 289.78 64.7C290.4 64.31 291.14 64.12 291.98 64.12C292.84 64.12 293.59 64.31 294.21 64.7C294.84 65.09 295.31 65.6201 295.64 66.3101C295.98 66.9901 296.15 67.78 296.15 68.67C296.15 69.57 295.98 70.3701 295.64 71.0601C295.31 71.7401 294.83 72.27 294.2 72.66C293.58 73.05 292.84 73.24 291.98 73.24ZM291.98 71.89C292.88 71.89 293.54 71.59 293.98 70.99C294.42 70.39 294.64 69.62 294.64 68.67C294.64 67.7 294.41 66.92 293.97 66.34C293.53 65.76 292.87 65.47 291.98 65.47C291.38 65.47 290.88 65.61 290.49 65.88C290.1 66.15 289.81 66.53 289.62 67.01C289.43 67.49 289.33 68.04 289.33 68.67C289.33 69.64 289.56 70.42 290 71.01C290.45 71.59 291.11 71.89 291.98 71.89ZM299.44 73L296.8 64.35L298.21 64.36L300.14 70.6801L302.08 64.36H303.34L305.28 70.6801L307.21 64.36H308.62L305.98 73H304.8L302.71 66.4301L300.62 73H299.44Z" fill="#8A8B98"/>
<path d="M13 44L40.73 31.35L67.31 34.89L101.58 21.23L140.87 18.7L181.69 31.35L220.98 10.6H259.11L293 2" stroke="#3B82F6" stroke-width="4" stroke-linecap="round"/>
</svg>
