<svg width="24" height="24" viewBox="0 0 24 24" fill="none" xmlns="http://www.w3.org/2000/svg">
<path d="M18 21C18 18.878 17.157 16.843 15.657 15.343C14.157 13.843 12.122 13 10 13C7.878 13 5.84299 13.843 4.34299 15.343C2.84299 16.843 2 18.878 2 21" stroke="black" stroke-width="2" stroke-linecap="round" stroke-linejoin="round"/>
<path d="M10 13C12.761 13 15 10.761 15 8C15 5.239 12.761 3 10 3C7.239 3 5 5.239 5 8C5 10.761 7.239 13 10 13Z" stroke="black" stroke-width="2" stroke-linecap="round" stroke-linejoin="round"/>
<path d="M22.0001 20C22.0001 16.63 20.0001 13.5 18.0001 12C18.6571 11.507 19.1831 10.859 19.5311 10.114C19.8781 9.36995 20.0371 8.55095 19.9921 7.72995C19.9481 6.90895 19.7011 6.11195 19.2751 5.40895C18.8501 4.70695 18.257 4.11895 17.55 3.69995" stroke="black" stroke-width="2" stroke-linecap="round" stroke-linejoin="round"/>
</svg>
