<svg width="24" height="24" viewBox="0 0 24 24" fill="none" xmlns="http://www.w3.org/2000/svg">
<path d="M15 22V14C15 13.735 14.895 13.48 14.707 13.293C14.52 13.105 14.265 13 14 13H10C9.735 13 9.48 13.105 9.293 13.293C9.105 13.48 9 13.735 9 14V22" stroke="black" stroke-width="2" stroke-linecap="round" stroke-linejoin="round"/>
<path d="M3 11C3 10.709 3.063 10.422 3.186 10.158C3.308 9.894 3.487 9.66 3.709 9.472L10.709 3.473C11.07 3.168 11.527 3 12 3C12.473 3 12.93 3.168 13.291 3.473L20.291 9.472C20.513 9.66 20.692 9.894 20.814 10.158C20.937 10.422 21 10.709 21 11V20C21 20.53 20.789 21.039 20.414 21.414C20.039 21.789 19.53 22 19 22H5C4.47 22 3.961 21.789 3.586 21.414C3.211 21.039 3 20.53 3 20V11Z" stroke="black" stroke-width="2" stroke-linecap="round" stroke-linejoin="round"/>
</svg>
