<svg width="24" height="24" viewBox="0 0 24 24" fill="none" xmlns="http://www.w3.org/2000/svg">
<g clip-path="url(#clip0_454_430)">
<path d="M12 24C18.6274 24 24 18.6274 24 12C24 5.37258 18.6274 0 12 0C5.37258 0 0 5.37258 0 12C0 18.6274 5.37258 24 12 24Z" fill="#B93B3B"/>
<path d="M12 12V17.6C12 17.971 12.147 18.3273 12.413 18.5898C12.672 18.8523 13.029 19 13.4 19C13.771 19 14.128 18.8523 14.387 18.5898C14.653 18.3273 14.8 17.971 14.8 17.6M12 5V5.7M19 12C18.811 10.2759 17.992 8.68201 16.697 7.52421C15.409 6.36641 13.736 5.72589 12 5.72589C10.264 5.72589 8.59103 6.36641 7.30303 7.52421C6.00803 8.68201 5.189 10.2759 5 12H19Z" stroke="#E5E7EB" stroke-linecap="round" stroke-linejoin="round"/>
</g>
<defs>
<clipPath id="clip0_454_430">
<rect width="24" height="24" fill="white"/>
</clipPath>
</defs>
</svg>
