<svg width="24" height="24" viewBox="0 0 24 24" fill="none" xmlns="http://www.w3.org/2000/svg">
<g clip-path="url(#clip0_454_420)">
<path d="M12 24C18.6274 24 24 18.6274 24 12C24 5.37258 18.6274 0 12 0C5.37258 0 0 5.37258 0 12C0 18.6274 5.37258 24 12 24Z" fill="#3BB979"/>
<path d="M17.334 12.6699C17.334 15.9999 15 17.6699 12.227 18.6299C12.082 18.6799 11.924 18.6799 11.78 18.6299C8.99998 17.6699 6.66699 15.9999 6.66699 12.6699V8C6.66699 7.82 6.73698 7.65003 6.86198 7.53003C6.98698 7.40003 7.15698 7.33008 7.33398 7.33008C8.66698 7.33008 10.334 6.53002 11.494 5.52002C11.635 5.40002 11.815 5.33008 12 5.33008C12.186 5.33008 12.366 5.40002 12.507 5.52002C13.674 6.54002 15.334 7.33008 16.667 7.33008C16.844 7.33008 17.013 7.40003 17.138 7.53003C17.263 7.65003 17.334 7.82 17.334 8V12.6699Z" stroke="#E5E7EB" stroke-linecap="round" stroke-linejoin="round"/>
<path d="M10 12L11.333 13.3301L14 10.6699" stroke="#E5E7EB" stroke-linecap="round" stroke-linejoin="round"/>
</g>
<defs>
<clipPath id="clip0_454_420">
<rect width="24" height="24" fill="white"/>
</clipPath>
</defs>
</svg>
