<svg width="30" height="30" viewBox="0 0 30 30" fill="none" xmlns="http://www.w3.org/2000/svg">
<path d="M25.333 16.667C25.333 23.334 20.667 26.667 15.12 28.601C14.83 28.699 14.514 28.694 14.227 28.587C8.66699 26.667 4 23.334 4 16.667V7.33398C4 6.97998 4.13999 6.64099 4.39099 6.39099C4.64099 6.14099 4.98001 6.00098 5.33301 6.00098C8.00001 6.00098 11.333 4.40096 13.653 2.37396C13.936 2.13296 14.295 2 14.667 2C15.038 2 15.398 2.13296 15.68 2.37396C18.013 4.41396 21.333 6.00098 24 6.00098C24.354 6.00098 24.693 6.14099 24.943 6.39099C25.193 6.64099 25.333 6.97998 25.333 7.33398V16.667Z" stroke="#6A3BF6" stroke-width="1.5" stroke-linecap="round" stroke-linejoin="round"/>
<path d="M7.16797 24.547C7.73697 23.017 8.76101 21.697 10.101 20.765C11.442 19.834 13.036 19.335 14.669 19.335C16.301 19.335 17.895 19.835 19.235 20.768C20.576 21.7 21.599 23.021 22.167 24.551" stroke="#6A3BF6" stroke-width="1.5" stroke-linecap="round" stroke-linejoin="round"/>
<path d="M14.666 19.334C17.612 19.334 20 16.946 20 14.001C20 11.055 17.612 8.66699 14.666 8.66699C11.721 8.66699 9.33301 11.055 9.33301 14.001C9.33301 16.946 11.721 19.334 14.666 19.334Z" stroke="#6A3BF6" stroke-width="1.5" stroke-linecap="round" stroke-linejoin="round"/>
</svg>
