<svg width="24" height="24" viewBox="0 0 24 24" fill="none" xmlns="http://www.w3.org/2000/svg">
<g clip-path="url(#clip0_454_435)">
<path d="M12 24C18.6274 24 24 18.6274 24 12C24 5.37258 18.6274 0 12 0C5.37258 0 0 5.37258 0 12C0 18.6274 5.37258 24 12 24Z" fill="#FDD261"/>
<path d="M7.79894 19V6.39969C7.79894 6.02851 7.94599 5.67254 8.20856 5.41004C8.47112 5.14701 8.82822 5 9.20106 5H14.7989C15.1718 5 15.5289 5.14701 15.7914 5.41004C16.054 5.67254 16.2011 6.02851 16.2011 6.39969V19M7.79894 19H16.2011M7.79894 19H6.39681C6.02921 19 5.67212 18.8525 5.40956 18.59C5.14699 18.3275 5 17.9715 5 17.6003V13.4002C5 13.0285 5.14699 12.6725 5.40956 12.41C5.67212 12.1475 6.02921 12 6.39681 12H7.79894M16.2011 19H17.6032C17.9708 19 18.3279 18.8525 18.5904 18.59C18.853 18.3275 19 17.9715 19 17.6003V11.3002C19 10.9284 18.853 10.5725 18.5904 10.31C18.3279 10.0475 17.9708 9.89995 17.6032 9.89995H16.2011M10.5979 7.7999H13.4021M10.5979 10.5998H13.4021M10.5979 13.4002H13.4021M10.5979 16.2001H13.4021" stroke="#E5E7EB" stroke-linecap="round" stroke-linejoin="round"/>
</g>
<defs>
<clipPath id="clip0_454_435">
<rect width="24" height="24" fill="white"/>
</clipPath>
</defs>
</svg>
