<svg width="24" height="24" viewBox="0 0 24 24" fill="none" xmlns="http://www.w3.org/2000/svg">
<g clip-path="url(#clip0_454_395)">
<path d="M12 24C18.6274 24 24 18.6274 24 12C24 5.37258 18.6274 0 12 0C5.37258 0 0 5.37258 0 12C0 18.6274 5.37258 24 12 24Z" fill="#3B82F6"/>
<path d="M12 10.96V13.5M12 5.5V7.5M16.666 12.8301V8.83008C16.666 8.48008 16.526 8.13989 16.276 7.88989C16.026 7.63989 15.687 7.5 15.333 7.5H8.66602C8.31302 7.5 7.97401 7.63989 7.72401 7.88989C7.47301 8.13989 7.33301 8.48008 7.33301 8.83008V12.8301" stroke="#E5E7EB" stroke-linecap="round" stroke-linejoin="round"/>
<path d="M16.9201 17.5C17.6371 16.29 18.0111 14.91 18.0001 13.5L12.5411 11.0701C12.3711 11.0001 12.1871 10.96 12.0001 10.96C11.8141 10.96 11.6291 11.0001 11.4591 11.0701L6.00006 13.5C5.96906 15.4 6.63606 17.2399 7.87306 18.6699" stroke="#E5E7EB" stroke-linecap="round" stroke-linejoin="round"/>
<path d="M5.33301 18.1699C5.73301 18.4999 6.13302 18.8301 7.00002 18.8301C8.66602 18.8301 8.66601 17.5 10.333 17.5C11.2 17.5 11.6 17.8299 12 18.1699C12.4 18.4999 12.8 18.8301 13.666 18.8301C15.333 18.8301 15.333 17.5 17 17.5C17.866 17.5 18.266 17.8299 18.666 18.1699" stroke="#E5E7EB" stroke-linecap="round" stroke-linejoin="round"/>
</g>
<defs>
<clipPath id="clip0_454_395">
<rect width="24" height="24" fill="white"/>
</clipPath>
</defs>
</svg>
