<svg width="24" height="24" viewBox="0 0 24 24" fill="none" xmlns="http://www.w3.org/2000/svg">
<g clip-path="url(#clip0_348_375)">
<path d="M11.9998 15.0001C12.3198 15.0001 12.6197 15.1271 12.8497 15.3521C13.0697 15.5771 13.1997 15.8821 13.1997 16.2001C13.1997 16.5181 13.0697 16.8241 12.8497 17.0491C12.6197 17.2741 12.3198 17.4001 11.9998 17.4001C11.6798 17.4001 11.3798 17.2741 11.1498 17.0491C10.9298 16.8241 10.7998 16.5181 10.7998 16.2001C10.7998 15.8821 10.9298 15.5771 11.1498 15.3521C11.3798 15.1271 11.6798 15.0001 11.9998 15.0001ZM11.9998 10.8001C12.3198 10.8001 12.6197 10.9271 12.8497 11.1521C13.0697 11.3771 13.1997 11.6821 13.1997 12.0001C13.1997 12.3181 13.0697 12.6241 12.8497 12.8491C12.6197 13.0741 12.3198 13.2001 11.9998 13.2001C11.6798 13.2001 11.3798 13.0741 11.1498 12.8491C10.9298 12.6241 10.7998 12.3181 10.7998 12.0001C10.7998 11.6821 10.9298 11.3771 11.1498 11.1521C11.3798 10.9271 11.6798 10.8001 11.9998 10.8001ZM11.9998 6.6001C12.3198 6.6001 12.6197 6.72709 12.8497 6.95209C13.0697 7.17709 13.1997 7.48208 13.1997 7.80008C13.1997 8.11808 13.0697 8.42408 12.8497 8.64908C12.6197 8.87408 12.3198 9.00009 11.9998 9.00009C11.6798 9.00009 11.3798 8.87408 11.1498 8.64908C10.9298 8.42408 10.7998 8.11808 10.7998 7.80008C10.7998 7.48208 10.9298 7.17709 11.1498 6.95209C11.3798 6.72709 11.6798 6.6001 11.9998 6.6001Z" fill="black"/>
<path d="M12 0C18.6274 0 24 5.37258 24 12C24 18.6274 18.6274 24 12 24C5.37258 24 0 18.6274 0 12C0 5.37258 5.37258 0 12 0ZM12 1.5C6.20101 1.5 1.5 6.20101 1.5 12C1.5 17.799 6.20101 22.5 12 22.5C17.799 22.5 22.5 17.799 22.5 12C22.5 6.20101 17.799 1.5 12 1.5Z" fill="black"/>
</g>
<defs>
<clipPath id="clip0_348_375">
<rect width="24" height="24" fill="white"/>
</clipPath>
</defs>
</svg>
