<svg width="24" height="24" viewBox="0 0 24 24" fill="none" xmlns="http://www.w3.org/2000/svg">
<path d="M10 18L13 15L10 12M14 2V6C14 6.53 14.211 7.039 14.586 7.414C14.961 7.789 15.47 8 16 8H20" stroke="black" stroke-width="2" stroke-linecap="round" stroke-linejoin="round"/>
<path d="M4 11V4C4 3.47 4.211 2.961 4.586 2.586C4.961 2.211 5.47 2 6 2H15L20 7V20C20 20.53 19.789 21.039 19.414 21.414C19.039 21.789 18.53 22 18 22H6C5.47 22 4.961 21.789 4.586 21.414C4.211 21.039 4 20.53 4 20V17C4 16.47 4.211 15.961 4.586 15.586C4.961 15.211 5.47 15 6 15H13" stroke="black" stroke-width="2" stroke-linecap="round" stroke-linejoin="round"/>
</svg>
