<svg width="29" height="29" viewBox="0 0 29 29" fill="none" xmlns="http://www.w3.org/2000/svg">
<path d="M3.66699 20.3305C1.66699 22.0105 1 27.0004 1 27.0004C1 27.0004 5.98699 26.3305 7.66699 24.3305C8.61299 23.2105 8.6 21.4906 7.547 20.4506C7.028 19.9606 6.346 19.6705 5.63 19.6505C4.914 19.6305 4.21499 19.8705 3.66699 20.3305ZM13.667 18.3305L9.66699 14.3305C10.376 12.4905 11.27 10.7205 12.333 9.06046C13.887 6.58046 16.05 4.53052 18.617 3.12052C21.185 1.71052 24.07 0.9804 27 1.0004C27 4.6204 25.96 11.0006 19 15.6606C17.316 16.7306 15.529 17.6205 13.667 18.3305Z" stroke="#3BB979" stroke-width="2" stroke-linecap="round" stroke-linejoin="round"/>
<path d="M9.66699 14.3309H3C3 14.3309 3.73299 10.2908 5.66699 9.00084C7.82699 7.56084 12.333 9.00084 12.333 9.00084M13.667 18.3309V25.0008C13.667 25.0008 17.707 24.2609 19 22.3309C20.44 20.1709 19 15.661 19 15.661" stroke="#3BB979" stroke-width="2" stroke-linecap="round" stroke-linejoin="round"/>
</svg>
