<svg width="24" height="24" viewBox="0 0 24 24" fill="none" xmlns="http://www.w3.org/2000/svg">
<path d="M12 8C16.971 8 21 6.657 21 5C21 3.343 16.971 2 12 2C7.029 2 3 3.343 3 5C3 6.657 7.029 8 12 8Z" stroke="black" stroke-width="2" stroke-linecap="round" stroke-linejoin="round"/>
<path d="M3 5V19C3 19.796 3.94799 20.559 5.63599 21.121C7.32399 21.684 9.613 22 12 22C14.387 22 16.676 21.684 18.364 21.121C20.052 20.559 21 19.796 21 19V5" stroke="black" stroke-width="2" stroke-linecap="round" stroke-linejoin="round"/>
<path d="M3 12C3 12.796 3.94799 13.559 5.63599 14.121C7.32399 14.684 9.613 15 12 15C14.387 15 16.676 14.684 18.364 14.121C20.052 13.559 21 12.796 21 12" stroke="black" stroke-width="2" stroke-linecap="round" stroke-linejoin="round"/>
</svg>
