<svg width="24" height="24" viewBox="0 0 24 24" fill="none" xmlns="http://www.w3.org/2000/svg">
<path d="M2.58997 17.452C2.20997 17.827 2 18.336 2 18.866V21.038C2 21.303 2.11004 21.558 2.29004 21.745C2.48004 21.933 2.73 22.038 3 22.038H6C6.27 22.038 6.51996 21.933 6.70996 21.745C6.88996 21.558 7 21.303 7 21.038V20.038C7 19.773 7.11004 19.519 7.29004 19.331C7.48004 19.144 7.73 19.038 8 19.038H9C9.27 19.038 9.51996 18.933 9.70996 18.745C9.88996 18.558 10 18.303 10 18.038V17.038C10 16.773 10.11 16.519 10.29 16.331C10.48 16.144 10.73 16.038 11 16.038H11.17C11.7 16.038 12.21 15.827 12.59 15.452L13.4 14.638C14.79 15.122 16.2999 15.12 17.6899 14.633C19.0799 14.145 20.26 13.201 21.04 11.954C21.83 10.708 22.16 9.232 22 7.77C21.83 6.307 21.18 4.944 20.13 3.904C19.09 2.863 17.73 2.206 16.27 2.041C14.81 1.876 13.33 2.21201 12.08 2.99401C10.84 3.77601 9.89003 4.95801 9.41003 6.34701C8.92003 7.73501 8.92002 9.24801 9.40002 10.638L2.58997 17.452Z" stroke="black" stroke-width="2" stroke-linecap="round" stroke-linejoin="round"/>
<path d="M16.5 8.03809C16.78 8.03809 17 7.81409 17 7.53809C17 7.26209 16.78 7.03809 16.5 7.03809C16.22 7.03809 16 7.26209 16 7.53809C16 7.81409 16.22 8.03809 16.5 8.03809Z" fill="black" stroke="black" stroke-width="2" stroke-linecap="round" stroke-linejoin="round"/>
</svg>
