<svg width="16" height="16" viewBox="0 0 16 16" fill="none" xmlns="http://www.w3.org/2000/svg">
<path d="M8.823 13.1699L14 7.86987M10.667 3.66992L5.058 9.38989C4.808 9.63989 4.66701 9.97984 4.66701 10.3398C4.66701 10.6898 4.808 11.03 5.058 11.28C5.308 11.53 5.647 11.6699 6 11.6699C6.354 11.6699 6.69299 11.53 6.94299 11.28L12.552 5.55981C13.052 5.05981 13.333 4.37992 13.333 3.66992C13.333 2.95992 13.052 2.28003 12.552 1.78003C12.052 1.28003 11.374 1 10.667 1C9.96001 1 9.282 1.28003 8.782 1.78003L3.172 7.51001C2.421 8.26001 2 9.27984 2 10.3398C2 11.3998 2.421 12.4199 3.172 13.1699C3.922 13.9199 4.939 14.3398 6 14.3398C7.061 14.3398 8.07899 13.9199 8.82899 13.1699" stroke="#E5E7EB" stroke-linecap="round" stroke-linejoin="round"/>
</svg>
