<svg width="24" height="24" viewBox="0 0 24 24" fill="none" xmlns="http://www.w3.org/2000/svg">
<path d="M12 13V2L20 6L12 10" stroke="black" stroke-width="2" stroke-linecap="round" stroke-linejoin="round"/>
<path d="M20.561 10.2221C21.093 11.8621 21.143 13.6211 20.704 15.2881C20.266 16.9561 19.3581 18.4631 18.0881 19.6291C16.8181 20.7951 15.239 21.5721 13.54 21.8671C11.841 22.1621 10.0941 21.9631 8.50507 21.2931C6.91607 20.6231 5.55306 19.5111 4.57806 18.0891C3.60206 16.6671 3.05609 14.9951 3.00409 13.2711C2.95209 11.5481 3.39706 9.84513 4.28406 8.36713C5.17206 6.88913 6.46505 5.69613 8.01105 4.93213" stroke="black" stroke-width="2" stroke-linecap="round" stroke-linejoin="round"/>
<path d="M8.00215 9.99707C7.50115 10.6641 7.17511 11.4461 7.05311 12.2711C6.93111 13.0971 7.01816 13.9391 7.30616 14.7231C7.59316 15.5061 8.07213 16.2051 8.69813 16.7551C9.32513 17.3061 10.0791 17.6921 10.8931 17.8761C11.7071 18.0611 12.5532 18.0391 13.3562 17.8131C14.1592 17.5861 14.8931 17.1631 15.4901 16.5801C16.0881 15.9981 16.5301 15.2751 16.7761 14.4781C17.0231 13.6811 17.0661 12.8351 16.9021 12.0171" stroke="black" stroke-width="2" stroke-linecap="round" stroke-linejoin="round"/>
</svg>
