<svg width="30" height="30" viewBox="0 0 30 30" fill="none" xmlns="http://www.w3.org/2000/svg">
<path d="M25.666 15.833C25.666 22.5 21 25.833 15.453 27.767C15.163 27.865 14.847 27.86 14.56 27.753C9 25.833 4.33301 22.5 4.33301 15.833V6.5C4.33301 6.146 4.473 5.80701 4.724 5.55701C4.974 5.30701 5.31302 5.16699 5.66602 5.16699C8.33302 5.16699 11.666 3.56698 13.986 1.53998C14.269 1.29898 14.628 1.16602 15 1.16602C15.371 1.16602 15.731 1.29898 16.013 1.53998C18.346 3.57998 21.666 5.16699 24.333 5.16699C24.687 5.16699 25.026 5.30701 25.276 5.55701C25.526 5.80701 25.666 6.146 25.666 6.5V15.833Z" stroke="#3BB979" stroke-width="1.5" stroke-linecap="round" stroke-linejoin="round"/>
<path d="M11 14.5L13.667 17.167L19 11.833" stroke="#3BB979" stroke-width="1.5" stroke-linecap="round" stroke-linejoin="round"/>
</svg>
