<svg width="24" height="24" viewBox="0 0 24 24" fill="none" xmlns="http://www.w3.org/2000/svg">
<g clip-path="url(#clip0_454_425)">
<path d="M12 24C18.6274 24 24 18.6274 24 12C24 5.37258 18.6274 0 12 0C5.37258 0 0 5.37258 0 12C0 18.6274 5.37258 24 12 24Z" fill="#6A3BF6"/>
<path d="M17.334 12.6699C17.334 15.9999 15 17.6699 12.227 18.6299C12.082 18.6799 11.924 18.6799 11.78 18.6299C8.99998 17.6699 6.66699 15.9999 6.66699 12.6699V8C6.66699 7.82 6.73698 7.65003 6.86198 7.53003C6.98698 7.40003 7.15698 7.33008 7.33398 7.33008C8.66698 7.33008 10.334 6.53002 11.494 5.52002C11.635 5.40002 11.815 5.33008 12 5.33008C12.186 5.33008 12.366 5.40002 12.507 5.52002C13.674 6.54002 15.334 7.33008 16.667 7.33008C16.844 7.33008 17.013 7.40003 17.138 7.53003C17.263 7.65003 17.334 7.82 17.334 8V12.6699Z" stroke="#E5E7EB" stroke-linecap="round" stroke-linejoin="round"/>
<path d="M8.25098 16.6101C8.53498 15.8401 9.04697 15.18 9.71797 14.72C10.388 14.25 11.185 14 12.001 14C12.818 14 13.614 14.25 14.285 14.72C14.955 15.18 15.466 15.8401 15.75 16.6101" stroke="#E5E7EB" stroke-linecap="round" stroke-linejoin="round"/>
<path d="M12.001 14C13.473 14 14.667 12.8101 14.667 11.3301C14.667 9.86008 13.473 8.66992 12.001 8.66992C10.528 8.66992 9.33398 9.86008 9.33398 11.3301C9.33398 12.8101 10.528 14 12.001 14Z" stroke="#E5E7EB" stroke-linecap="round" stroke-linejoin="round"/>
</g>
<defs>
<clipPath id="clip0_454_425">
<rect width="24" height="24" fill="white"/>
</clipPath>
</defs>
</svg>
