<svg width="30" height="30" viewBox="0 0 30 30" fill="none" xmlns="http://www.w3.org/2000/svg">
<path d="M7.32996 28.666V4.66602C7.32996 3.95902 7.60999 3.28101 8.10999 2.78101C8.60999 2.28001 9.29 2 10 2H20.6599C21.3699 2 22.0499 2.28001 22.5499 2.78101C23.0499 3.28101 23.33 3.95902 23.33 4.66602V28.666M7.32996 28.666H23.33M7.32996 28.666H4.65991C3.95991 28.666 3.27991 28.385 2.77991 27.885C2.27991 27.385 2 26.707 2 26V18C2 17.292 2.27991 16.614 2.77991 16.114C3.27991 15.614 3.95991 15.333 4.65991 15.333H7.32996M23.33 28.666H26C26.7 28.666 27.38 28.385 27.88 27.885C28.38 27.385 28.6599 26.707 28.6599 26V14C28.6599 13.292 28.38 12.614 27.88 12.114C27.38 11.614 26.7 11.333 26 11.333H23.33M12.6599 7.33301H18M12.6599 12.666H18M12.6599 18H18M12.6599 23.333H18" stroke="#FDD261" stroke-width="2" stroke-linecap="round" stroke-linejoin="round"/>
</svg>
