<svg width="30" height="30" viewBox="0 0 30 30" fill="none" xmlns="http://www.w3.org/2000/svg">
<path d="M15.333 12.919V18M15.333 2V6M24.667 16.667V8.66699C24.667 7.95899 24.386 7.28101 23.886 6.78101C23.386 6.28101 22.707 6 22 6H8.66699C7.95899 6 7.28101 6.28101 6.78101 6.78101C6.28101 7.28101 6 7.95899 6 8.66699V16.667" stroke="#3B82F6" stroke-width="1.5" stroke-linecap="round" stroke-linejoin="round"/>
<path d="M25.1729 25.9999C26.6069 23.5799 27.3539 20.8139 27.3329 17.9999L16.4159 13.1479C16.0749 12.9969 15.7059 12.918 15.3329 12.918C14.9599 12.918 14.5909 12.9969 14.2499 13.1479L3.33288 17.9999C3.27088 21.7919 4.60489 25.4739 7.07989 28.3469" stroke="#3B82F6" stroke-width="1.5" stroke-linecap="round" stroke-linejoin="round"/>
<path d="M2 27.333C2.8 28 3.59999 28.667 5.33299 28.667C8.66699 28.667 8.667 26 12 26C13.733 26 14.533 26.667 15.333 27.333C16.133 28 16.933 28.667 18.667 28.667C22 28.667 22 26 25.333 26C27.067 26 27.867 26.667 28.667 27.333" stroke="#3B82F6" stroke-width="1.5" stroke-linecap="round" stroke-linejoin="round"/>
</svg>
